<?xml version="1.0" encoding="UTF-8"?> <svg xmlns="http://www.w3.org/2000/svg" xmlns:xlink="http://www.w3.org/1999/xlink" width="500" zoomAndPan="magnify" viewBox="0 0 375 374.999991" height="500" preserveAspectRatio="xMidYMid meet" version="1.0"><defs><g></g><clipPath id="8f1136c692"><rect x="0" width="265" y="0" height="130"></rect></clipPath></defs><g transform="matrix(1, 0, 0, 1, 39, 128)"><g clip-path="url(#8f1136c692)"><g fill="#917964" fill-opacity="0.1804"><g transform="translate(45.836057, 88.772028)"><g><path d="M 115.8125 -83.0625 C 117.59375 -82.988281 119.082031 -82.507812 120.28125 -81.625 C 121.476562 -80.738281 122.078125 -79.40625 122.078125 -77.625 C 122.078125 -75.632812 121.203125 -73.148438 119.453125 -70.171875 C 117.710938 -67.191406 114.789062 -63.859375 110.6875 -60.171875 C 106.507812 -56.398438 101.238281 -52.703125 94.875 -49.078125 C 88.507812 -45.453125 81.5625 -42.097656 74.03125 -39.015625 L 70.640625 -37.6875 C 67.492188 -33.09375 64.3125 -28.4375 61.09375 -23.71875 C 57.875 -19 54.550781 -14.3125 51.125 -9.65625 C 53.800781 -9.039062 56.457031 -8.539062 59.09375 -8.15625 C 61.726562 -7.78125 64.34375 -7.59375 66.9375 -7.59375 C 71.457031 -7.59375 75.820312 -8.296875 80.03125 -9.703125 C 84.238281 -11.109375 88.394531 -13.625 92.5 -17.25 C 92.78125 -17.519531 93.160156 -17.878906 93.640625 -18.328125 C 94.117188 -18.773438 94.5625 -19.203125 94.96875 -19.609375 C 95.382812 -20.015625 95.742188 -20.375 96.046875 -20.6875 C 96.359375 -21 96.546875 -21.15625 96.609375 -21.15625 C 96.953125 -21.15625 97.125 -20.945312 97.125 -20.53125 C 94.863281 -18.132812 92.601562 -16.082031 90.34375 -14.375 C 86.582031 -11.5 82.769531 -9.515625 78.90625 -8.421875 C 75.039062 -7.328125 71.085938 -6.78125 67.046875 -6.78125 C 64.378906 -6.78125 61.675781 -6.984375 58.9375 -7.390625 C 56.195312 -7.804688 53.425781 -8.320312 50.625 -8.9375 C 45.832031 -2.363281 40.882812 3.914062 35.78125 9.90625 C 30.675781 15.894531 25.367188 21.144531 19.859375 25.65625 C 14.359375 30.175781 8.679688 33.789062 2.828125 36.5 C -3.023438 39.207031 -9.132812 40.5625 -15.5 40.5625 C -19.601562 40.5625 -23.160156 40.03125 -26.171875 38.96875 C -29.191406 37.90625 -31.660156 36.484375 -33.578125 34.703125 C -35.492188 32.921875 -36.910156 30.816406 -37.828125 28.390625 C -38.753906 25.960938 -39.21875 23.378906 -39.21875 20.640625 C -39.21875 16.328125 -38.15625 11.875 -36.03125 7.28125 C -33.914062 2.695312 -30.867188 -1.488281 -26.890625 -5.28125 C -22.921875 -9.082031 -18.128906 -12.210938 -12.515625 -14.671875 C -6.910156 -17.140625 -0.617188 -18.375 6.359375 -18.375 C 9.992188 -18.375 13.585938 -18.097656 17.140625 -17.546875 C 20.703125 -17.003906 24.226562 -16.320312 27.71875 -15.5 C 31.207031 -14.675781 34.660156 -13.800781 38.078125 -12.875 C 41.503906 -11.957031 44.894531 -11.085938 48.25 -10.265625 C 51.40625 -14.578125 54.488281 -18.90625 57.5 -23.25 C 60.507812 -27.601562 63.484375 -31.9375 66.421875 -36.25 C 63.410156 -35.21875 60.003906 -34.132812 56.203125 -33 C 52.410156 -31.875 48.457031 -30.847656 44.34375 -29.921875 C 40.238281 -29.003906 36.097656 -28.234375 31.921875 -27.609375 C 27.753906 -26.992188 23.71875 -26.6875 19.8125 -26.6875 C 15.5 -26.6875 11.53125 -27.148438 7.90625 -28.078125 C 4.28125 -29.003906 1.300781 -30.5625 -1.03125 -32.75 C -1.644531 -33.300781 -2.394531 -34.125 -3.28125 -35.21875 C -4.175781 -36.3125 -4.625 -37.335938 -4.625 -38.296875 C -4.625 -38.503906 -4.519531 -38.609375 -4.3125 -38.609375 C -4.101562 -38.609375 -3.96875 -38.539062 -3.90625 -38.40625 C -3.082031 -36.34375 -1.914062 -34.628906 -0.40625 -33.265625 C 1.09375 -31.898438 2.867188 -30.769531 4.921875 -29.875 C 6.984375 -28.988281 9.257812 -28.351562 11.75 -27.96875 C 14.25 -27.59375 16.90625 -27.40625 19.71875 -27.40625 C 23.6875 -27.40625 27.84375 -27.726562 32.1875 -28.375 C 36.53125 -29.03125 40.804688 -29.835938 45.015625 -30.796875 C 49.222656 -31.753906 53.226562 -32.832031 57.03125 -34.03125 C 60.832031 -35.226562 64.238281 -36.34375 67.25 -37.375 C 71.5625 -43.53125 75.785156 -49.378906 79.921875 -54.921875 C 84.066406 -60.472656 88.15625 -65.316406 92.1875 -69.453125 C 96.226562 -73.597656 100.21875 -76.898438 104.15625 -79.359375 C 108.09375 -81.828125 111.976562 -83.0625 115.8125 -83.0625 Z M -15.5 39.734375 C -9.6875 39.734375 -4.007812 38.394531 1.53125 35.71875 C 7.082031 33.050781 12.472656 29.441406 17.703125 24.890625 C 22.941406 20.335938 28.0625 15.082031 33.0625 9.125 C 38.0625 3.175781 42.957031 -3.082031 47.75 -9.65625 C 44.457031 -10.476562 41.132812 -11.347656 37.78125 -12.265625 C 34.425781 -13.191406 31.019531 -14.046875 27.5625 -14.828125 C 24.101562 -15.617188 20.613281 -16.285156 17.09375 -16.828125 C 13.570312 -17.378906 9.992188 -17.65625 6.359375 -17.65625 C -0.484375 -17.65625 -6.660156 -16.441406 -12.171875 -14.015625 C -17.679688 -11.585938 -22.382812 -8.503906 -26.28125 -4.765625 C -30.1875 -1.035156 -33.179688 3.066406 -35.265625 7.546875 C -37.359375 12.023438 -38.40625 16.351562 -38.40625 20.53125 C -38.40625 23.195312 -37.957031 25.691406 -37.0625 28.015625 C -36.175781 30.347656 -34.789062 32.382812 -32.90625 34.125 C -31.019531 35.875 -28.640625 37.242188 -25.765625 38.234375 C -22.890625 39.234375 -19.46875 39.734375 -15.5 39.734375 Z M 121.25 -77.3125 C 121.25 -78.957031 120.769531 -80.1875 119.8125 -81 C 118.851562 -81.820312 117.554688 -82.234375 115.921875 -82.234375 C 112.429688 -82.234375 108.90625 -81.070312 105.34375 -78.75 C 101.78125 -76.425781 98.148438 -73.296875 94.453125 -69.359375 C 90.753906 -65.421875 86.988281 -60.816406 83.15625 -55.546875 C 79.332031 -50.273438 75.429688 -44.695312 71.453125 -38.8125 C 71.867188 -39.019531 72.265625 -39.191406 72.640625 -39.328125 C 73.015625 -39.460938 73.375 -39.597656 73.71875 -39.734375 C 81.175781 -42.816406 88.085938 -46.15625 94.453125 -49.75 C 100.816406 -53.34375 106.054688 -56.984375 110.171875 -60.671875 C 114.066406 -64.171875 116.867188 -67.320312 118.578125 -70.125 C 120.296875 -72.925781 121.1875 -75.320312 121.25 -77.3125 Z M 121.25 -77.3125 "></path></g></g></g><g fill="#917964" fill-opacity="0.1804"><g transform="translate(140.095682, 88.772028)"><g><path d="M 60.0625 -67.140625 C 60.0625 -65.503906 59.203125 -63.519531 57.484375 -61.1875 C 55.773438 -58.863281 53.46875 -56.347656 50.5625 -53.640625 C 47.65625 -50.941406 44.300781 -48.15625 40.5 -45.28125 C 36.707031 -42.40625 32.738281 -39.5625 28.59375 -36.75 C 24.445312 -33.945312 20.269531 -31.257812 16.0625 -28.6875 C 11.851562 -26.125 7.898438 -23.851562 4.203125 -21.875 C 0.0351562 -16.738281 -3.382812 -12.21875 -6.0625 -8.3125 C -5.03125 -9.40625 -3.929688 -10.535156 -2.765625 -11.703125 C -1.609375 -12.867188 -0.429688 -13.910156 0.765625 -14.828125 C 1.960938 -15.753906 3.160156 -16.507812 4.359375 -17.09375 C 5.554688 -17.675781 6.671875 -17.96875 7.703125 -17.96875 C 8.867188 -17.96875 9.640625 -17.519531 10.015625 -16.625 C 10.390625 -15.738281 10.675781 -14.78125 10.875 -13.75 C 11.082031 -12.726562 11.359375 -11.769531 11.703125 -10.875 C 12.046875 -9.988281 12.800781 -9.546875 13.96875 -9.546875 C 14.582031 -9.546875 15.28125 -9.75 16.0625 -10.15625 C 16.851562 -10.570312 17.726562 -11.085938 18.6875 -11.703125 C 20.050781 -12.660156 21.453125 -13.769531 22.890625 -15.03125 C 24.328125 -16.300781 25.628906 -17.484375 26.796875 -18.578125 C 26.867188 -18.648438 27.023438 -18.820312 27.265625 -19.09375 C 27.503906 -19.363281 27.742188 -19.65625 27.984375 -19.96875 C 28.222656 -20.28125 28.476562 -20.554688 28.75 -20.796875 C 29.019531 -21.035156 29.222656 -21.15625 29.359375 -21.15625 C 29.703125 -21.15625 29.875 -20.945312 29.875 -20.53125 C 28.988281 -19.644531 27.828125 -18.5 26.390625 -17.09375 C 24.953125 -15.6875 23.394531 -14.316406 21.71875 -12.984375 C 20.039062 -11.648438 18.378906 -10.503906 16.734375 -9.546875 C 15.085938 -8.585938 13.617188 -8.109375 12.328125 -8.109375 C 11.085938 -8.109375 10.191406 -8.570312 9.640625 -9.5 C 9.097656 -10.425781 8.691406 -11.4375 8.421875 -12.53125 C 8.148438 -13.625 7.925781 -14.628906 7.75 -15.546875 C 7.582031 -16.472656 7.257812 -16.9375 6.78125 -16.9375 C 5.6875 -16.9375 4.347656 -16.367188 2.765625 -15.234375 C 1.191406 -14.109375 -0.378906 -12.789062 -1.953125 -11.28125 C -3.523438 -9.78125 -4.976562 -8.257812 -6.3125 -6.71875 C -7.644531 -5.1875 -8.617188 -4.007812 -9.234375 -3.1875 C -9.648438 -2.363281 -10.097656 -1.953125 -10.578125 -1.953125 C -10.921875 -1.953125 -11.242188 -2.085938 -11.546875 -2.359375 C -11.859375 -2.628906 -12.015625 -2.9375 -12.015625 -3.28125 C -12.015625 -3.5625 -11.976562 -3.769531 -11.90625 -3.90625 C -11.019531 -5.613281 -9.617188 -7.867188 -7.703125 -10.671875 C -5.785156 -13.484375 -3.488281 -16.597656 -0.8125 -20.015625 C 1.851562 -23.441406 4.8125 -27.070312 8.0625 -30.90625 C 11.3125 -34.738281 14.679688 -38.503906 18.171875 -42.203125 C 21.660156 -45.898438 25.1875 -49.441406 28.75 -52.828125 C 32.3125 -56.210938 35.75 -59.1875 39.0625 -61.75 C 42.382812 -64.320312 45.484375 -66.378906 48.359375 -67.921875 C 51.234375 -69.460938 53.765625 -70.234375 55.953125 -70.234375 C 57.046875 -70.234375 57.9375 -70.007812 58.625 -69.5625 C 59.3125 -69.113281 59.789062 -68.304688 60.0625 -67.140625 Z M 38.703125 -44.875 C 41.648438 -47.0625 44.375 -49.234375 46.875 -51.390625 C 49.375 -53.546875 51.546875 -55.582031 53.390625 -57.5 C 55.234375 -59.414062 56.664062 -61.191406 57.6875 -62.828125 C 58.71875 -64.472656 59.234375 -65.910156 59.234375 -67.140625 C 59.234375 -68.035156 58.910156 -68.617188 58.265625 -68.890625 C 57.617188 -69.160156 56.984375 -69.296875 56.359375 -69.296875 C 54.785156 -69.234375 52.882812 -68.550781 50.65625 -67.25 C 48.4375 -65.945312 46.007812 -64.269531 43.375 -62.21875 C 40.738281 -60.164062 38.035156 -57.851562 35.265625 -55.28125 C 32.492188 -52.71875 29.84375 -50.171875 27.3125 -47.640625 C 23.476562 -43.804688 19.695312 -39.800781 15.96875 -35.625 C 12.238281 -31.445312 8.726562 -27.410156 5.4375 -23.515625 C 8.039062 -24.953125 10.742188 -26.488281 13.546875 -28.125 C 16.359375 -29.769531 19.203125 -31.515625 22.078125 -33.359375 C 24.953125 -35.210938 27.789062 -37.097656 30.59375 -39.015625 C 33.40625 -40.929688 36.109375 -42.882812 38.703125 -44.875 Z M 38.703125 -44.875 "></path></g></g></g><g fill="#917964" fill-opacity="0.1804"><g transform="translate(167.819097, 88.772028)"><g><path d="M 26.078125 -21.15625 C 26.484375 -21.15625 26.6875 -20.984375 26.6875 -20.640625 C 25.726562 -19.398438 24.703125 -18.285156 23.609375 -17.296875 C 22.515625 -16.304688 21.351562 -15.4375 20.125 -14.6875 C 17.65625 -13.113281 15.019531 -11.828125 12.21875 -10.828125 C 9.414062 -9.835938 6.644531 -8.796875 3.90625 -7.703125 C 0.6875 -3.597656 -2.921875 0.742188 -6.921875 5.328125 C -10.929688 9.921875 -15.003906 14.285156 -19.140625 18.421875 C -23.285156 22.566406 -27.394531 26.210938 -31.46875 29.359375 C -35.539062 32.515625 -39.21875 34.707031 -42.5 35.9375 C -42.976562 36.070312 -43.523438 36.222656 -44.140625 36.390625 C -44.765625 36.566406 -45.382812 36.65625 -46 36.65625 C -46.75 36.65625 -47.394531 36.445312 -47.9375 36.03125 C -48.488281 35.625 -48.765625 34.941406 -48.765625 33.984375 C -48.703125 33.429688 -48.53125 32.78125 -48.25 32.03125 C -47.976562 31.28125 -47.535156 30.425781 -46.921875 29.46875 C -44.796875 26.175781 -41.953125 22.785156 -38.390625 19.296875 C -34.835938 15.804688 -30.921875 12.4375 -26.640625 9.1875 C -22.359375 5.9375 -17.925781 2.90625 -13.34375 0.09375 C -8.757812 -2.707031 -4.378906 -5.03125 -0.203125 -6.875 C 1.503906 -8.925781 3.0625 -10.894531 4.46875 -12.78125 C 5.875 -14.664062 7.15625 -16.394531 8.3125 -17.96875 C 7.632812 -17.550781 6.863281 -17.066406 6 -16.515625 C 5.144531 -15.972656 4.269531 -15.476562 3.375 -15.03125 C 2.488281 -14.59375 1.648438 -14.21875 0.859375 -13.90625 C 0.078125 -13.601562 -0.550781 -13.453125 -1.03125 -13.453125 C -2.257812 -13.453125 -2.875 -14.101562 -2.875 -15.40625 C -2.875 -15.882812 -2.71875 -16.484375 -2.40625 -17.203125 C -2.101562 -17.921875 -1.742188 -18.601562 -1.328125 -19.25 C -0.921875 -19.894531 -0.476562 -20.457031 0 -20.9375 C 0.476562 -21.414062 0.890625 -21.65625 1.234375 -21.65625 C 1.578125 -21.65625 1.898438 -21.570312 2.203125 -21.40625 C 2.515625 -21.238281 2.671875 -20.984375 2.671875 -20.640625 C 2.671875 -20.429688 2.445312 -20.050781 2 -19.5 C 1.550781 -18.957031 1.070312 -18.378906 0.5625 -17.765625 C 0.0507812 -17.148438 -0.40625 -16.550781 -0.8125 -15.96875 C -1.226562 -15.382812 -1.4375 -14.921875 -1.4375 -14.578125 C -1.4375 -14.367188 -1.300781 -14.265625 -1.03125 -14.265625 C -0.550781 -14.265625 0.0976562 -14.4375 0.921875 -14.78125 C 1.742188 -15.125 2.597656 -15.535156 3.484375 -16.015625 C 4.378906 -16.492188 5.269531 -17.003906 6.15625 -17.546875 C 7.050781 -18.097656 7.804688 -18.582031 8.421875 -19 L 9.546875 -19.71875 C 9.679688 -19.71875 9.882812 -19.800781 10.15625 -19.96875 C 10.4375 -20.132812 10.710938 -20.21875 10.984375 -20.21875 C 11.328125 -20.21875 11.617188 -20.148438 11.859375 -20.015625 C 12.097656 -19.878906 12.21875 -19.640625 12.21875 -19.296875 C 12.21875 -18.953125 11.957031 -18.367188 11.4375 -17.546875 C 10.925781 -16.734375 10.296875 -15.847656 9.546875 -14.890625 C 8.796875 -13.929688 7.992188 -12.921875 7.140625 -11.859375 C 6.285156 -10.796875 5.515625 -9.820312 4.828125 -8.9375 C 6.398438 -9.550781 7.988281 -10.128906 9.59375 -10.671875 C 11.207031 -11.222656 12.800781 -11.84375 14.375 -12.53125 C 15.601562 -13.070312 16.816406 -13.664062 18.015625 -14.3125 C 19.210938 -14.96875 20.359375 -15.707031 21.453125 -16.53125 C 22.347656 -17.21875 23.171875 -17.921875 23.921875 -18.640625 C 24.671875 -19.359375 25.390625 -20.195312 26.078125 -21.15625 Z M -43.015625 34.90625 C -40.347656 33.675781 -37.269531 31.601562 -33.78125 28.6875 C -30.289062 25.78125 -26.675781 22.460938 -22.9375 18.734375 C -19.207031 15.003906 -15.476562 11.015625 -11.75 6.765625 C -8.019531 2.523438 -4.546875 -1.539062 -1.328125 -5.4375 C -5.234375 -3.65625 -9.304688 -1.445312 -13.546875 1.1875 C -17.796875 3.820312 -21.9375 6.675781 -25.96875 9.75 C -28.507812 11.738281 -31.097656 13.859375 -33.734375 16.109375 C -36.367188 18.367188 -38.742188 20.628906 -40.859375 22.890625 C -42.984375 25.148438 -44.710938 27.289062 -46.046875 29.3125 C -47.378906 31.332031 -48.046875 33.023438 -48.046875 34.390625 C -48.046875 34.867188 -47.835938 35.226562 -47.421875 35.46875 C -47.015625 35.707031 -46.609375 35.828125 -46.203125 35.828125 C -45.648438 35.828125 -45.117188 35.671875 -44.609375 35.359375 C -44.097656 35.054688 -43.566406 34.90625 -43.015625 34.90625 Z M -43.015625 34.90625 "></path></g></g></g><g fill="#917964" fill-opacity="0.1804"><g transform="translate(192.564819, 88.772028)"><g><path d="M 24.4375 -21.15625 C 24.84375 -21.15625 25.046875 -20.945312 25.046875 -20.53125 L 24.125 -19.609375 C 23.300781 -18.785156 22.34375 -17.828125 21.25 -16.734375 C 20.15625 -15.640625 19.007812 -14.613281 17.8125 -13.65625 C 16.613281 -12.695312 15.414062 -11.875 14.21875 -11.1875 C 13.019531 -10.507812 11.910156 -10.171875 10.890625 -10.171875 C 9.722656 -10.171875 8.914062 -10.546875 8.46875 -11.296875 C 8.019531 -12.046875 7.710938 -12.847656 7.546875 -13.703125 C 7.378906 -14.554688 7.191406 -15.359375 6.984375 -16.109375 C 6.773438 -16.867188 6.363281 -17.25 5.75 -17.25 C 5.269531 -17.25 4.566406 -16.90625 3.640625 -16.21875 C 2.722656 -15.539062 1.765625 -14.738281 0.765625 -13.8125 C -0.222656 -12.882812 -1.175781 -11.941406 -2.09375 -10.984375 C -3.019531 -10.023438 -3.757812 -9.273438 -4.3125 -8.734375 L -4.71875 -8.3125 C -4.925781 -7.832031 -5.304688 -7.59375 -5.859375 -7.59375 C -6.265625 -7.59375 -6.585938 -7.726562 -6.828125 -8 C -7.066406 -8.28125 -7.1875 -8.59375 -7.1875 -8.9375 C -7.1875 -9.132812 -7.148438 -9.304688 -7.078125 -9.453125 C -6.671875 -10.335938 -6.125 -11.460938 -5.4375 -12.828125 C -4.757812 -14.203125 -4.007812 -15.535156 -3.1875 -16.828125 C -2.363281 -18.128906 -1.539062 -19.257812 -0.71875 -20.21875 C 0.101562 -21.175781 0.859375 -21.65625 1.546875 -21.65625 C 2.359375 -21.65625 2.765625 -21.382812 2.765625 -20.84375 C 2.765625 -20.5 2.628906 -20.15625 2.359375 -19.8125 C 1.191406 -18.375 0.113281 -16.898438 -0.875 -15.390625 C -1.863281 -13.890625 -2.769531 -12.316406 -3.59375 -10.671875 C -2.84375 -11.492188 -1.988281 -12.382812 -1.03125 -13.34375 C -0.0703125 -14.300781 0.882812 -15.191406 1.84375 -16.015625 C 2.800781 -16.835938 3.742188 -17.519531 4.671875 -18.0625 C 5.597656 -18.613281 6.367188 -18.890625 6.984375 -18.890625 C 8.003906 -18.890625 8.671875 -18.476562 8.984375 -17.65625 C 9.296875 -16.832031 9.535156 -15.925781 9.703125 -14.9375 C 9.867188 -13.945312 10.054688 -13.039062 10.265625 -12.21875 C 10.472656 -11.394531 10.953125 -10.984375 11.703125 -10.984375 C 12.390625 -10.984375 13.363281 -11.410156 14.625 -12.265625 C 15.894531 -13.117188 17.160156 -14.128906 18.421875 -15.296875 C 19.691406 -16.460938 20.890625 -17.59375 22.015625 -18.6875 C 23.148438 -19.78125 23.957031 -20.601562 24.4375 -21.15625 Z M 24.4375 -21.15625 "></path></g></g></g><g fill="#917964" fill-opacity="0.1804"><g transform="translate(215.667669, 88.772028)"><g><path d="M 27.3125 -21.15625 C 27.65625 -21.15625 27.828125 -20.945312 27.828125 -20.53125 C 26.796875 -19.4375 25.546875 -18.171875 24.078125 -16.734375 C 22.609375 -15.296875 21.015625 -13.941406 19.296875 -12.671875 C 17.585938 -11.410156 15.828125 -10.332031 14.015625 -9.4375 C 12.203125 -8.550781 10.507812 -8.109375 8.9375 -8.109375 C 7.976562 -8.109375 7.101562 -8.378906 6.3125 -8.921875 C 5.53125 -9.472656 5.140625 -10.4375 5.140625 -11.8125 C 5.140625 -13.382812 5.445312 -14.992188 6.0625 -16.640625 C 4.6875 -15.398438 3.28125 -14.265625 1.84375 -13.234375 C 0.40625 -12.210938 -0.722656 -11.703125 -1.546875 -11.703125 C -2.023438 -11.703125 -2.484375 -11.820312 -2.921875 -12.0625 C -3.367188 -12.300781 -3.59375 -12.796875 -3.59375 -13.546875 C -3.59375 -14.367188 -3.332031 -15.257812 -2.8125 -16.21875 C -2.300781 -17.175781 -1.648438 -18.082031 -0.859375 -18.9375 C -0.078125 -19.789062 0.753906 -20.492188 1.640625 -21.046875 C 2.535156 -21.597656 3.390625 -21.875 4.203125 -21.875 C 4.960938 -21.875 5.628906 -21.664062 6.203125 -21.25 C 6.785156 -20.84375 7.25 -20.398438 7.59375 -19.921875 C 7.9375 -20.328125 8.242188 -20.734375 8.515625 -21.140625 C 8.796875 -21.554688 9.273438 -21.765625 9.953125 -21.765625 C 10.234375 -21.765625 10.492188 -21.695312 10.734375 -21.5625 C 10.972656 -21.425781 11.09375 -21.1875 11.09375 -20.84375 C 11.09375 -20.632812 10.867188 -20.132812 10.421875 -19.34375 C 9.972656 -18.5625 9.492188 -17.65625 8.984375 -16.625 C 8.472656 -15.601562 8.007812 -14.5625 7.59375 -13.5 C 7.1875 -12.4375 6.984375 -11.492188 6.984375 -10.671875 C 6.984375 -9.992188 7.1875 -9.535156 7.59375 -9.296875 C 8.007812 -9.054688 8.457031 -8.9375 8.9375 -8.9375 C 10.375 -8.9375 11.960938 -9.378906 13.703125 -10.265625 C 15.453125 -11.160156 17.179688 -12.238281 18.890625 -13.5 C 20.597656 -14.769531 22.1875 -16.101562 23.65625 -17.5 C 25.132812 -18.90625 26.351562 -20.125 27.3125 -21.15625 Z M 7.296875 -19.203125 C 7.085938 -19.398438 6.757812 -19.722656 6.3125 -20.171875 C 5.863281 -20.617188 5.472656 -20.84375 5.140625 -20.84375 C 4.722656 -20.84375 4.101562 -20.535156 3.28125 -19.921875 C 2.457031 -19.304688 1.632812 -18.585938 0.8125 -17.765625 C 0 -16.941406 -0.710938 -16.101562 -1.328125 -15.25 C -1.953125 -14.394531 -2.265625 -13.726562 -2.265625 -13.25 C -2.265625 -12.832031 -2.054688 -12.625 -1.640625 -12.625 C -1.234375 -12.625 -0.65625 -12.828125 0.09375 -13.234375 C 0.851562 -13.648438 1.644531 -14.179688 2.46875 -14.828125 C 3.289062 -15.484375 4.128906 -16.1875 4.984375 -16.9375 C 5.835938 -17.6875 6.609375 -18.441406 7.296875 -19.203125 Z M 7.296875 -19.203125 "></path></g></g></g><g fill="#917964" fill-opacity="0.1804"><g transform="translate(241.953576, 88.772028)"><g><path d="M 20.734375 -21.15625 C 20.867188 -21.15625 20.988281 -21.082031 21.09375 -20.9375 C 21.195312 -20.800781 21.25 -20.664062 21.25 -20.53125 C 20.5 -19.707031 19.285156 -18.492188 17.609375 -16.890625 C 15.929688 -15.285156 14.097656 -13.710938 12.109375 -12.171875 C 10.128906 -10.628906 8.179688 -9.273438 6.265625 -8.109375 C 4.347656 -6.941406 2.804688 -6.359375 1.640625 -6.359375 C 0.140625 -6.359375 -0.609375 -7.25 -0.609375 -9.03125 C -0.609375 -9.851562 -0.40625 -10.675781 0 -11.5 C 0.40625 -12.320312 0.847656 -13.144531 1.328125 -13.96875 C 1.804688 -14.789062 2.269531 -15.609375 2.71875 -16.421875 C 3.164062 -17.242188 3.421875 -18.132812 3.484375 -19.09375 L 3.484375 -19.5 C 3.484375 -19.976562 3.414062 -20.40625 3.28125 -20.78125 C 3.144531 -21.164062 3.007812 -21.5625 2.875 -21.96875 C 2.320312 -21.082031 1.648438 -20.242188 0.859375 -19.453125 C 0.078125 -18.671875 -0.722656 -17.898438 -1.546875 -17.140625 C -1.609375 -17.078125 -1.707031 -17.046875 -1.84375 -17.046875 C -2.050781 -17.046875 -2.15625 -17.179688 -2.15625 -17.453125 C -2.15625 -17.585938 -2.085938 -17.722656 -1.953125 -17.859375 C -1.128906 -18.617188 -0.328125 -19.40625 0.453125 -20.21875 C 1.242188 -21.039062 1.914062 -21.929688 2.46875 -22.890625 C 2.1875 -23.441406 1.941406 -24.023438 1.734375 -24.640625 C 1.535156 -25.253906 1.4375 -25.9375 1.4375 -26.6875 L 1.4375 -27.109375 C 1.507812 -28.066406 1.734375 -28.800781 2.109375 -29.3125 C 2.484375 -29.820312 2.910156 -30.078125 3.390625 -30.078125 C 3.734375 -30.078125 4.054688 -29.867188 4.359375 -29.453125 C 4.671875 -29.046875 4.828125 -28.363281 4.828125 -27.40625 C 4.753906 -26.445312 4.546875 -25.488281 4.203125 -24.53125 L 4.421875 -24.234375 L 4.625 -23.921875 C 4.820312 -23.515625 4.921875 -23.34375 4.921875 -23.40625 C 5.265625 -22.863281 5.554688 -22.265625 5.796875 -21.609375 C 6.035156 -20.960938 6.15625 -20.257812 6.15625 -19.5 L 6.15625 -19 C 6.09375 -17.757812 5.785156 -16.609375 5.234375 -15.546875 C 4.691406 -14.492188 4.109375 -13.519531 3.484375 -12.625 C 2.867188 -11.738281 2.304688 -10.898438 1.796875 -10.109375 C 1.285156 -9.328125 0.992188 -8.59375 0.921875 -7.90625 C 0.921875 -7.425781 1.160156 -7.1875 1.640625 -7.1875 C 2.734375 -7.1875 4.238281 -7.785156 6.15625 -8.984375 C 8.070312 -10.179688 10.003906 -11.550781 11.953125 -13.09375 C 13.910156 -14.632812 15.707031 -16.171875 17.34375 -17.703125 C 18.988281 -19.242188 20.117188 -20.394531 20.734375 -21.15625 Z M 2.765625 -28.4375 C 2.765625 -27.894531 2.847656 -27.398438 3.015625 -26.953125 C 3.191406 -26.503906 3.421875 -26.039062 3.703125 -25.5625 L 4 -27.515625 L 4 -27.921875 C 4 -28.878906 3.757812 -29.359375 3.28125 -29.359375 C 2.9375 -29.359375 2.765625 -29.050781 2.765625 -28.4375 Z M 2.765625 -28.4375 "></path></g></g></g><g fill="#917964" fill-opacity="1"><g transform="translate(41.298199, 84.23417)"><g><path d="M 115.8125 -83.0625 C 117.59375 -82.988281 119.082031 -82.507812 120.28125 -81.625 C 121.476562 -80.738281 122.078125 -79.40625 122.078125 -77.625 C 122.078125 -75.632812 121.203125 -73.148438 119.453125 -70.171875 C 117.710938 -67.191406 114.789062 -63.859375 110.6875 -60.171875 C 106.507812 -56.398438 101.238281 -52.703125 94.875 -49.078125 C 88.507812 -45.453125 81.5625 -42.097656 74.03125 -39.015625 L 70.640625 -37.6875 C 67.492188 -33.09375 64.3125 -28.4375 61.09375 -23.71875 C 57.875 -19 54.550781 -14.3125 51.125 -9.65625 C 53.800781 -9.039062 56.457031 -8.539062 59.09375 -8.15625 C 61.726562 -7.78125 64.34375 -7.59375 66.9375 -7.59375 C 71.457031 -7.59375 75.820312 -8.296875 80.03125 -9.703125 C 84.238281 -11.109375 88.394531 -13.625 92.5 -17.25 C 92.78125 -17.519531 93.160156 -17.878906 93.640625 -18.328125 C 94.117188 -18.773438 94.5625 -19.203125 94.96875 -19.609375 C 95.382812 -20.015625 95.742188 -20.375 96.046875 -20.6875 C 96.359375 -21 96.546875 -21.15625 96.609375 -21.15625 C 96.953125 -21.15625 97.125 -20.945312 97.125 -20.53125 C 94.863281 -18.132812 92.601562 -16.082031 90.34375 -14.375 C 86.582031 -11.5 82.769531 -9.515625 78.90625 -8.421875 C 75.039062 -7.328125 71.085938 -6.78125 67.046875 -6.78125 C 64.378906 -6.78125 61.675781 -6.984375 58.9375 -7.390625 C 56.195312 -7.804688 53.425781 -8.320312 50.625 -8.9375 C 45.832031 -2.363281 40.882812 3.914062 35.78125 9.90625 C 30.675781 15.894531 25.367188 21.144531 19.859375 25.65625 C 14.359375 30.175781 8.679688 33.789062 2.828125 36.5 C -3.023438 39.207031 -9.132812 40.5625 -15.5 40.5625 C -19.601562 40.5625 -23.160156 40.03125 -26.171875 38.96875 C -29.191406 37.90625 -31.660156 36.484375 -33.578125 34.703125 C -35.492188 32.921875 -36.910156 30.816406 -37.828125 28.390625 C -38.753906 25.960938 -39.21875 23.378906 -39.21875 20.640625 C -39.21875 16.328125 -38.15625 11.875 -36.03125 7.28125 C -33.914062 2.695312 -30.867188 -1.488281 -26.890625 -5.28125 C -22.921875 -9.082031 -18.128906 -12.210938 -12.515625 -14.671875 C -6.910156 -17.140625 -0.617188 -18.375 6.359375 -18.375 C 9.992188 -18.375 13.585938 -18.097656 17.140625 -17.546875 C 20.703125 -17.003906 24.226562 -16.320312 27.71875 -15.5 C 31.207031 -14.675781 34.660156 -13.800781 38.078125 -12.875 C 41.503906 -11.957031 44.894531 -11.085938 48.25 -10.265625 C 51.40625 -14.578125 54.488281 -18.90625 57.5 -23.25 C 60.507812 -27.601562 63.484375 -31.9375 66.421875 -36.25 C 63.410156 -35.21875 60.003906 -34.132812 56.203125 -33 C 52.410156 -31.875 48.457031 -30.847656 44.34375 -29.921875 C 40.238281 -29.003906 36.097656 -28.234375 31.921875 -27.609375 C 27.753906 -26.992188 23.71875 -26.6875 19.8125 -26.6875 C 15.5 -26.6875 11.53125 -27.148438 7.90625 -28.078125 C 4.28125 -29.003906 1.300781 -30.5625 -1.03125 -32.75 C -1.644531 -33.300781 -2.394531 -34.125 -3.28125 -35.21875 C -4.175781 -36.3125 -4.625 -37.335938 -4.625 -38.296875 C -4.625 -38.503906 -4.519531 -38.609375 -4.3125 -38.609375 C -4.101562 -38.609375 -3.96875 -38.539062 -3.90625 -38.40625 C -3.082031 -36.34375 -1.914062 -34.628906 -0.40625 -33.265625 C 1.09375 -31.898438 2.867188 -30.769531 4.921875 -29.875 C 6.984375 -28.988281 9.257812 -28.351562 11.75 -27.96875 C 14.25 -27.59375 16.90625 -27.40625 19.71875 -27.40625 C 23.6875 -27.40625 27.84375 -27.726562 32.1875 -28.375 C 36.53125 -29.03125 40.804688 -29.835938 45.015625 -30.796875 C 49.222656 -31.753906 53.226562 -32.832031 57.03125 -34.03125 C 60.832031 -35.226562 64.238281 -36.34375 67.25 -37.375 C 71.5625 -43.53125 75.785156 -49.378906 79.921875 -54.921875 C 84.066406 -60.472656 88.15625 -65.316406 92.1875 -69.453125 C 96.226562 -73.597656 100.21875 -76.898438 104.15625 -79.359375 C 108.09375 -81.828125 111.976562 -83.0625 115.8125 -83.0625 Z M -15.5 39.734375 C -9.6875 39.734375 -4.007812 38.394531 1.53125 35.71875 C 7.082031 33.050781 12.472656 29.441406 17.703125 24.890625 C 22.941406 20.335938 28.0625 15.082031 33.0625 9.125 C 38.0625 3.175781 42.957031 -3.082031 47.75 -9.65625 C 44.457031 -10.476562 41.132812 -11.347656 37.78125 -12.265625 C 34.425781 -13.191406 31.019531 -14.046875 27.5625 -14.828125 C 24.101562 -15.617188 20.613281 -16.285156 17.09375 -16.828125 C 13.570312 -17.378906 9.992188 -17.65625 6.359375 -17.65625 C -0.484375 -17.65625 -6.660156 -16.441406 -12.171875 -14.015625 C -17.679688 -11.585938 -22.382812 -8.503906 -26.28125 -4.765625 C -30.1875 -1.035156 -33.179688 3.066406 -35.265625 7.546875 C -37.359375 12.023438 -38.40625 16.351562 -38.40625 20.53125 C -38.40625 23.195312 -37.957031 25.691406 -37.0625 28.015625 C -36.175781 30.347656 -34.789062 32.382812 -32.90625 34.125 C -31.019531 35.875 -28.640625 37.242188 -25.765625 38.234375 C -22.890625 39.234375 -19.46875 39.734375 -15.5 39.734375 Z M 121.25 -77.3125 C 121.25 -78.957031 120.769531 -80.1875 119.8125 -81 C 118.851562 -81.820312 117.554688 -82.234375 115.921875 -82.234375 C 112.429688 -82.234375 108.90625 -81.070312 105.34375 -78.75 C 101.78125 -76.425781 98.148438 -73.296875 94.453125 -69.359375 C 90.753906 -65.421875 86.988281 -60.816406 83.15625 -55.546875 C 79.332031 -50.273438 75.429688 -44.695312 71.453125 -38.8125 C 71.867188 -39.019531 72.265625 -39.191406 72.640625 -39.328125 C 73.015625 -39.460938 73.375 -39.597656 73.71875 -39.734375 C 81.175781 -42.816406 88.085938 -46.15625 94.453125 -49.75 C 100.816406 -53.34375 106.054688 -56.984375 110.171875 -60.671875 C 114.066406 -64.171875 116.867188 -67.320312 118.578125 -70.125 C 120.296875 -72.925781 121.1875 -75.320312 121.25 -77.3125 Z M 121.25 -77.3125 "></path></g></g></g><g fill="#917964" fill-opacity="1"><g transform="translate(135.557823, 84.23417)"><g><path d="M 60.0625 -67.140625 C 60.0625 -65.503906 59.203125 -63.519531 57.484375 -61.1875 C 55.773438 -58.863281 53.46875 -56.347656 50.5625 -53.640625 C 47.65625 -50.941406 44.300781 -48.15625 40.5 -45.28125 C 36.707031 -42.40625 32.738281 -39.5625 28.59375 -36.75 C 24.445312 -33.945312 20.269531 -31.257812 16.0625 -28.6875 C 11.851562 -26.125 7.898438 -23.851562 4.203125 -21.875 C 0.0351562 -16.738281 -3.382812 -12.21875 -6.0625 -8.3125 C -5.03125 -9.40625 -3.929688 -10.535156 -2.765625 -11.703125 C -1.609375 -12.867188 -0.429688 -13.910156 0.765625 -14.828125 C 1.960938 -15.753906 3.160156 -16.507812 4.359375 -17.09375 C 5.554688 -17.675781 6.671875 -17.96875 7.703125 -17.96875 C 8.867188 -17.96875 9.640625 -17.519531 10.015625 -16.625 C 10.390625 -15.738281 10.675781 -14.78125 10.875 -13.75 C 11.082031 -12.726562 11.359375 -11.769531 11.703125 -10.875 C 12.046875 -9.988281 12.800781 -9.546875 13.96875 -9.546875 C 14.582031 -9.546875 15.28125 -9.75 16.0625 -10.15625 C 16.851562 -10.570312 17.726562 -11.085938 18.6875 -11.703125 C 20.050781 -12.660156 21.453125 -13.769531 22.890625 -15.03125 C 24.328125 -16.300781 25.628906 -17.484375 26.796875 -18.578125 C 26.867188 -18.648438 27.023438 -18.820312 27.265625 -19.09375 C 27.503906 -19.363281 27.742188 -19.65625 27.984375 -19.96875 C 28.222656 -20.28125 28.476562 -20.554688 28.75 -20.796875 C 29.019531 -21.035156 29.222656 -21.15625 29.359375 -21.15625 C 29.703125 -21.15625 29.875 -20.945312 29.875 -20.53125 C 28.988281 -19.644531 27.828125 -18.5 26.390625 -17.09375 C 24.953125 -15.6875 23.394531 -14.316406 21.71875 -12.984375 C 20.039062 -11.648438 18.378906 -10.503906 16.734375 -9.546875 C 15.085938 -8.585938 13.617188 -8.109375 12.328125 -8.109375 C 11.085938 -8.109375 10.191406 -8.570312 9.640625 -9.5 C 9.097656 -10.425781 8.691406 -11.4375 8.421875 -12.53125 C 8.148438 -13.625 7.925781 -14.628906 7.75 -15.546875 C 7.582031 -16.472656 7.257812 -16.9375 6.78125 -16.9375 C 5.6875 -16.9375 4.347656 -16.367188 2.765625 -15.234375 C 1.191406 -14.109375 -0.378906 -12.789062 -1.953125 -11.28125 C -3.523438 -9.78125 -4.976562 -8.257812 -6.3125 -6.71875 C -7.644531 -5.1875 -8.617188 -4.007812 -9.234375 -3.1875 C -9.648438 -2.363281 -10.097656 -1.953125 -10.578125 -1.953125 C -10.921875 -1.953125 -11.242188 -2.085938 -11.546875 -2.359375 C -11.859375 -2.628906 -12.015625 -2.9375 -12.015625 -3.28125 C -12.015625 -3.5625 -11.976562 -3.769531 -11.90625 -3.90625 C -11.019531 -5.613281 -9.617188 -7.867188 -7.703125 -10.671875 C -5.785156 -13.484375 -3.488281 -16.597656 -0.8125 -20.015625 C 1.851562 -23.441406 4.8125 -27.070312 8.0625 -30.90625 C 11.3125 -34.738281 14.679688 -38.503906 18.171875 -42.203125 C 21.660156 -45.898438 25.1875 -49.441406 28.75 -52.828125 C 32.3125 -56.210938 35.75 -59.1875 39.0625 -61.75 C 42.382812 -64.320312 45.484375 -66.378906 48.359375 -67.921875 C 51.234375 -69.460938 53.765625 -70.234375 55.953125 -70.234375 C 57.046875 -70.234375 57.9375 -70.007812 58.625 -69.5625 C 59.3125 -69.113281 59.789062 -68.304688 60.0625 -67.140625 Z M 38.703125 -44.875 C 41.648438 -47.0625 44.375 -49.234375 46.875 -51.390625 C 49.375 -53.546875 51.546875 -55.582031 53.390625 -57.5 C 55.234375 -59.414062 56.664062 -61.191406 57.6875 -62.828125 C 58.71875 -64.472656 59.234375 -65.910156 59.234375 -67.140625 C 59.234375 -68.035156 58.910156 -68.617188 58.265625 -68.890625 C 57.617188 -69.160156 56.984375 -69.296875 56.359375 -69.296875 C 54.785156 -69.234375 52.882812 -68.550781 50.65625 -67.25 C 48.4375 -65.945312 46.007812 -64.269531 43.375 -62.21875 C 40.738281 -60.164062 38.035156 -57.851562 35.265625 -55.28125 C 32.492188 -52.71875 29.84375 -50.171875 27.3125 -47.640625 C 23.476562 -43.804688 19.695312 -39.800781 15.96875 -35.625 C 12.238281 -31.445312 8.726562 -27.410156 5.4375 -23.515625 C 8.039062 -24.953125 10.742188 -26.488281 13.546875 -28.125 C 16.359375 -29.769531 19.203125 -31.515625 22.078125 -33.359375 C 24.953125 -35.210938 27.789062 -37.097656 30.59375 -39.015625 C 33.40625 -40.929688 36.109375 -42.882812 38.703125 -44.875 Z M 38.703125 -44.875 "></path></g></g></g><g fill="#917964" fill-opacity="1"><g transform="translate(163.281239, 84.23417)"><g><path d="M 26.078125 -21.15625 C 26.484375 -21.15625 26.6875 -20.984375 26.6875 -20.640625 C 25.726562 -19.398438 24.703125 -18.285156 23.609375 -17.296875 C 22.515625 -16.304688 21.351562 -15.4375 20.125 -14.6875 C 17.65625 -13.113281 15.019531 -11.828125 12.21875 -10.828125 C 9.414062 -9.835938 6.644531 -8.796875 3.90625 -7.703125 C 0.6875 -3.597656 -2.921875 0.742188 -6.921875 5.328125 C -10.929688 9.921875 -15.003906 14.285156 -19.140625 18.421875 C -23.285156 22.566406 -27.394531 26.210938 -31.46875 29.359375 C -35.539062 32.515625 -39.21875 34.707031 -42.5 35.9375 C -42.976562 36.070312 -43.523438 36.222656 -44.140625 36.390625 C -44.765625 36.566406 -45.382812 36.65625 -46 36.65625 C -46.75 36.65625 -47.394531 36.445312 -47.9375 36.03125 C -48.488281 35.625 -48.765625 34.941406 -48.765625 33.984375 C -48.703125 33.429688 -48.53125 32.78125 -48.25 32.03125 C -47.976562 31.28125 -47.535156 30.425781 -46.921875 29.46875 C -44.796875 26.175781 -41.953125 22.785156 -38.390625 19.296875 C -34.835938 15.804688 -30.921875 12.4375 -26.640625 9.1875 C -22.359375 5.9375 -17.925781 2.90625 -13.34375 0.09375 C -8.757812 -2.707031 -4.378906 -5.03125 -0.203125 -6.875 C 1.503906 -8.925781 3.0625 -10.894531 4.46875 -12.78125 C 5.875 -14.664062 7.15625 -16.394531 8.3125 -17.96875 C 7.632812 -17.550781 6.863281 -17.066406 6 -16.515625 C 5.144531 -15.972656 4.269531 -15.476562 3.375 -15.03125 C 2.488281 -14.59375 1.648438 -14.21875 0.859375 -13.90625 C 0.078125 -13.601562 -0.550781 -13.453125 -1.03125 -13.453125 C -2.257812 -13.453125 -2.875 -14.101562 -2.875 -15.40625 C -2.875 -15.882812 -2.71875 -16.484375 -2.40625 -17.203125 C -2.101562 -17.921875 -1.742188 -18.601562 -1.328125 -19.25 C -0.921875 -19.894531 -0.476562 -20.457031 0 -20.9375 C 0.476562 -21.414062 0.890625 -21.65625 1.234375 -21.65625 C 1.578125 -21.65625 1.898438 -21.570312 2.203125 -21.40625 C 2.515625 -21.238281 2.671875 -20.984375 2.671875 -20.640625 C 2.671875 -20.429688 2.445312 -20.050781 2 -19.5 C 1.550781 -18.957031 1.070312 -18.378906 0.5625 -17.765625 C 0.0507812 -17.148438 -0.40625 -16.550781 -0.8125 -15.96875 C -1.226562 -15.382812 -1.4375 -14.921875 -1.4375 -14.578125 C -1.4375 -14.367188 -1.300781 -14.265625 -1.03125 -14.265625 C -0.550781 -14.265625 0.0976562 -14.4375 0.921875 -14.78125 C 1.742188 -15.125 2.597656 -15.535156 3.484375 -16.015625 C 4.378906 -16.492188 5.269531 -17.003906 6.15625 -17.546875 C 7.050781 -18.097656 7.804688 -18.582031 8.421875 -19 L 9.546875 -19.71875 C 9.679688 -19.71875 9.882812 -19.800781 10.15625 -19.96875 C 10.4375 -20.132812 10.710938 -20.21875 10.984375 -20.21875 C 11.328125 -20.21875 11.617188 -20.148438 11.859375 -20.015625 C 12.097656 -19.878906 12.21875 -19.640625 12.21875 -19.296875 C 12.21875 -18.953125 11.957031 -18.367188 11.4375 -17.546875 C 10.925781 -16.734375 10.296875 -15.847656 9.546875 -14.890625 C 8.796875 -13.929688 7.992188 -12.921875 7.140625 -11.859375 C 6.285156 -10.796875 5.515625 -9.820312 4.828125 -8.9375 C 6.398438 -9.550781 7.988281 -10.128906 9.59375 -10.671875 C 11.207031 -11.222656 12.800781 -11.84375 14.375 -12.53125 C 15.601562 -13.070312 16.816406 -13.664062 18.015625 -14.3125 C 19.210938 -14.96875 20.359375 -15.707031 21.453125 -16.53125 C 22.347656 -17.21875 23.171875 -17.921875 23.921875 -18.640625 C 24.671875 -19.359375 25.390625 -20.195312 26.078125 -21.15625 Z M -43.015625 34.90625 C -40.347656 33.675781 -37.269531 31.601562 -33.78125 28.6875 C -30.289062 25.78125 -26.675781 22.460938 -22.9375 18.734375 C -19.207031 15.003906 -15.476562 11.015625 -11.75 6.765625 C -8.019531 2.523438 -4.546875 -1.539062 -1.328125 -5.4375 C -5.234375 -3.65625 -9.304688 -1.445312 -13.546875 1.1875 C -17.796875 3.820312 -21.9375 6.675781 -25.96875 9.75 C -28.507812 11.738281 -31.097656 13.859375 -33.734375 16.109375 C -36.367188 18.367188 -38.742188 20.628906 -40.859375 22.890625 C -42.984375 25.148438 -44.710938 27.289062 -46.046875 29.3125 C -47.378906 31.332031 -48.046875 33.023438 -48.046875 34.390625 C -48.046875 34.867188 -47.835938 35.226562 -47.421875 35.46875 C -47.015625 35.707031 -46.609375 35.828125 -46.203125 35.828125 C -45.648438 35.828125 -45.117188 35.671875 -44.609375 35.359375 C -44.097656 35.054688 -43.566406 34.90625 -43.015625 34.90625 Z M -43.015625 34.90625 "></path></g></g></g><g fill="#917964" fill-opacity="1"><g transform="translate(188.02696, 84.23417)"><g><path d="M 24.4375 -21.15625 C 24.84375 -21.15625 25.046875 -20.945312 25.046875 -20.53125 L 24.125 -19.609375 C 23.300781 -18.785156 22.34375 -17.828125 21.25 -16.734375 C 20.15625 -15.640625 19.007812 -14.613281 17.8125 -13.65625 C 16.613281 -12.695312 15.414062 -11.875 14.21875 -11.1875 C 13.019531 -10.507812 11.910156 -10.171875 10.890625 -10.171875 C 9.722656 -10.171875 8.914062 -10.546875 8.46875 -11.296875 C 8.019531 -12.046875 7.710938 -12.847656 7.546875 -13.703125 C 7.378906 -14.554688 7.191406 -15.359375 6.984375 -16.109375 C 6.773438 -16.867188 6.363281 -17.25 5.75 -17.25 C 5.269531 -17.25 4.566406 -16.90625 3.640625 -16.21875 C 2.722656 -15.539062 1.765625 -14.738281 0.765625 -13.8125 C -0.222656 -12.882812 -1.175781 -11.941406 -2.09375 -10.984375 C -3.019531 -10.023438 -3.757812 -9.273438 -4.3125 -8.734375 L -4.71875 -8.3125 C -4.925781 -7.832031 -5.304688 -7.59375 -5.859375 -7.59375 C -6.265625 -7.59375 -6.585938 -7.726562 -6.828125 -8 C -7.066406 -8.28125 -7.1875 -8.59375 -7.1875 -8.9375 C -7.1875 -9.132812 -7.148438 -9.304688 -7.078125 -9.453125 C -6.671875 -10.335938 -6.125 -11.460938 -5.4375 -12.828125 C -4.757812 -14.203125 -4.007812 -15.535156 -3.1875 -16.828125 C -2.363281 -18.128906 -1.539062 -19.257812 -0.71875 -20.21875 C 0.101562 -21.175781 0.859375 -21.65625 1.546875 -21.65625 C 2.359375 -21.65625 2.765625 -21.382812 2.765625 -20.84375 C 2.765625 -20.5 2.628906 -20.15625 2.359375 -19.8125 C 1.191406 -18.375 0.113281 -16.898438 -0.875 -15.390625 C -1.863281 -13.890625 -2.769531 -12.316406 -3.59375 -10.671875 C -2.84375 -11.492188 -1.988281 -12.382812 -1.03125 -13.34375 C -0.0703125 -14.300781 0.882812 -15.191406 1.84375 -16.015625 C 2.800781 -16.835938 3.742188 -17.519531 4.671875 -18.0625 C 5.597656 -18.613281 6.367188 -18.890625 6.984375 -18.890625 C 8.003906 -18.890625 8.671875 -18.476562 8.984375 -17.65625 C 9.296875 -16.832031 9.535156 -15.925781 9.703125 -14.9375 C 9.867188 -13.945312 10.054688 -13.039062 10.265625 -12.21875 C 10.472656 -11.394531 10.953125 -10.984375 11.703125 -10.984375 C 12.390625 -10.984375 13.363281 -11.410156 14.625 -12.265625 C 15.894531 -13.117188 17.160156 -14.128906 18.421875 -15.296875 C 19.691406 -16.460938 20.890625 -17.59375 22.015625 -18.6875 C 23.148438 -19.78125 23.957031 -20.601562 24.4375 -21.15625 Z M 24.4375 -21.15625 "></path></g></g></g><g fill="#917964" fill-opacity="1"><g transform="translate(211.129811, 84.23417)"><g><path d="M 27.3125 -21.15625 C 27.65625 -21.15625 27.828125 -20.945312 27.828125 -20.53125 C 26.796875 -19.4375 25.546875 -18.171875 24.078125 -16.734375 C 22.609375 -15.296875 21.015625 -13.941406 19.296875 -12.671875 C 17.585938 -11.410156 15.828125 -10.332031 14.015625 -9.4375 C 12.203125 -8.550781 10.507812 -8.109375 8.9375 -8.109375 C 7.976562 -8.109375 7.101562 -8.378906 6.3125 -8.921875 C 5.53125 -9.472656 5.140625 -10.4375 5.140625 -11.8125 C 5.140625 -13.382812 5.445312 -14.992188 6.0625 -16.640625 C 4.6875 -15.398438 3.28125 -14.265625 1.84375 -13.234375 C 0.40625 -12.210938 -0.722656 -11.703125 -1.546875 -11.703125 C -2.023438 -11.703125 -2.484375 -11.820312 -2.921875 -12.0625 C -3.367188 -12.300781 -3.59375 -12.796875 -3.59375 -13.546875 C -3.59375 -14.367188 -3.332031 -15.257812 -2.8125 -16.21875 C -2.300781 -17.175781 -1.648438 -18.082031 -0.859375 -18.9375 C -0.078125 -19.789062 0.753906 -20.492188 1.640625 -21.046875 C 2.535156 -21.597656 3.390625 -21.875 4.203125 -21.875 C 4.960938 -21.875 5.628906 -21.664062 6.203125 -21.25 C 6.785156 -20.84375 7.25 -20.398438 7.59375 -19.921875 C 7.9375 -20.328125 8.242188 -20.734375 8.515625 -21.140625 C 8.796875 -21.554688 9.273438 -21.765625 9.953125 -21.765625 C 10.234375 -21.765625 10.492188 -21.695312 10.734375 -21.5625 C 10.972656 -21.425781 11.09375 -21.1875 11.09375 -20.84375 C 11.09375 -20.632812 10.867188 -20.132812 10.421875 -19.34375 C 9.972656 -18.5625 9.492188 -17.65625 8.984375 -16.625 C 8.472656 -15.601562 8.007812 -14.5625 7.59375 -13.5 C 7.1875 -12.4375 6.984375 -11.492188 6.984375 -10.671875 C 6.984375 -9.992188 7.1875 -9.535156 7.59375 -9.296875 C 8.007812 -9.054688 8.457031 -8.9375 8.9375 -8.9375 C 10.375 -8.9375 11.960938 -9.378906 13.703125 -10.265625 C 15.453125 -11.160156 17.179688 -12.238281 18.890625 -13.5 C 20.597656 -14.769531 22.1875 -16.101562 23.65625 -17.5 C 25.132812 -18.90625 26.351562 -20.125 27.3125 -21.15625 Z M 7.296875 -19.203125 C 7.085938 -19.398438 6.757812 -19.722656 6.3125 -20.171875 C 5.863281 -20.617188 5.472656 -20.84375 5.140625 -20.84375 C 4.722656 -20.84375 4.101562 -20.535156 3.28125 -19.921875 C 2.457031 -19.304688 1.632812 -18.585938 0.8125 -17.765625 C 0 -16.941406 -0.710938 -16.101562 -1.328125 -15.25 C -1.953125 -14.394531 -2.265625 -13.726562 -2.265625 -13.25 C -2.265625 -12.832031 -2.054688 -12.625 -1.640625 -12.625 C -1.234375 -12.625 -0.65625 -12.828125 0.09375 -13.234375 C 0.851562 -13.648438 1.644531 -14.179688 2.46875 -14.828125 C 3.289062 -15.484375 4.128906 -16.1875 4.984375 -16.9375 C 5.835938 -17.6875 6.609375 -18.441406 7.296875 -19.203125 Z M 7.296875 -19.203125 "></path></g></g></g><g fill="#917964" fill-opacity="1"><g transform="translate(237.415718, 84.23417)"><g><path d="M 20.734375 -21.15625 C 20.867188 -21.15625 20.988281 -21.082031 21.09375 -20.9375 C 21.195312 -20.800781 21.25 -20.664062 21.25 -20.53125 C 20.5 -19.707031 19.285156 -18.492188 17.609375 -16.890625 C 15.929688 -15.285156 14.097656 -13.710938 12.109375 -12.171875 C 10.128906 -10.628906 8.179688 -9.273438 6.265625 -8.109375 C 4.347656 -6.941406 2.804688 -6.359375 1.640625 -6.359375 C 0.140625 -6.359375 -0.609375 -7.25 -0.609375 -9.03125 C -0.609375 -9.851562 -0.40625 -10.675781 0 -11.5 C 0.40625 -12.320312 0.847656 -13.144531 1.328125 -13.96875 C 1.804688 -14.789062 2.269531 -15.609375 2.71875 -16.421875 C 3.164062 -17.242188 3.421875 -18.132812 3.484375 -19.09375 L 3.484375 -19.5 C 3.484375 -19.976562 3.414062 -20.40625 3.28125 -20.78125 C 3.144531 -21.164062 3.007812 -21.5625 2.875 -21.96875 C 2.320312 -21.082031 1.648438 -20.242188 0.859375 -19.453125 C 0.078125 -18.671875 -0.722656 -17.898438 -1.546875 -17.140625 C -1.609375 -17.078125 -1.707031 -17.046875 -1.84375 -17.046875 C -2.050781 -17.046875 -2.15625 -17.179688 -2.15625 -17.453125 C -2.15625 -17.585938 -2.085938 -17.722656 -1.953125 -17.859375 C -1.128906 -18.617188 -0.328125 -19.40625 0.453125 -20.21875 C 1.242188 -21.039062 1.914062 -21.929688 2.46875 -22.890625 C 2.1875 -23.441406 1.941406 -24.023438 1.734375 -24.640625 C 1.535156 -25.253906 1.4375 -25.9375 1.4375 -26.6875 L 1.4375 -27.109375 C 1.507812 -28.066406 1.734375 -28.800781 2.109375 -29.3125 C 2.484375 -29.820312 2.910156 -30.078125 3.390625 -30.078125 C 3.734375 -30.078125 4.054688 -29.867188 4.359375 -29.453125 C 4.671875 -29.046875 4.828125 -28.363281 4.828125 -27.40625 C 4.753906 -26.445312 4.546875 -25.488281 4.203125 -24.53125 L 4.421875 -24.234375 L 4.625 -23.921875 C 4.820312 -23.515625 4.921875 -23.34375 4.921875 -23.40625 C 5.265625 -22.863281 5.554688 -22.265625 5.796875 -21.609375 C 6.035156 -20.960938 6.15625 -20.257812 6.15625 -19.5 L 6.15625 -19 C 6.09375 -17.757812 5.785156 -16.609375 5.234375 -15.546875 C 4.691406 -14.492188 4.109375 -13.519531 3.484375 -12.625 C 2.867188 -11.738281 2.304688 -10.898438 1.796875 -10.109375 C 1.285156 -9.328125 0.992188 -8.59375 0.921875 -7.90625 C 0.921875 -7.425781 1.160156 -7.1875 1.640625 -7.1875 C 2.734375 -7.1875 4.238281 -7.785156 6.15625 -8.984375 C 8.070312 -10.179688 10.003906 -11.550781 11.953125 -13.09375 C 13.910156 -14.632812 15.707031 -16.171875 17.34375 -17.703125 C 18.988281 -19.242188 20.117188 -20.394531 20.734375 -21.15625 Z M 2.765625 -28.4375 C 2.765625 -27.894531 2.847656 -27.398438 3.015625 -26.953125 C 3.191406 -26.503906 3.421875 -26.039062 3.703125 -25.5625 L 4 -27.515625 L 4 -27.921875 C 4 -28.878906 3.757812 -29.359375 3.28125 -29.359375 C 2.9375 -29.359375 2.765625 -29.050781 2.765625 -28.4375 Z M 2.765625 -28.4375 "></path></g></g></g></g></g></svg> 