<svg version="1.1" id="Layer_1" xmlns="http://www.w3.org/2000/svg" xmlns:xlink="http://www.w3.org/1999/xlink" x="0px" y="0px"
	 width="100%" viewBox="0 0 1024 672" enable-background="new 0 0 1024 672" xml:space="preserve">
<path fill="#7C6758" opacity="1.000000" stroke="none" 
	d="
M206.791901,450.981018 
	C206.936218,433.326111 215.662720,420.434875 227.963150,409.686920 
	C245.788895,394.110962 266.843231,385.909668 290.229187,382.616241 
	C325.959564,377.584351 360.576996,383.119598 394.826355,392.550232 
	C399.865906,393.937927 402.646759,392.838318 405.915924,389.096252 
	C428.408447,363.350006 449.093109,336.183685 469.532501,308.820190 
	C473.582001,303.398834 478.062958,298.260498 481.357941,292.336121 
	C479.706848,290.589569 478.321381,291.832794 477.037964,292.237427 
	C447.141907,301.663757 416.905609,309.905945 385.632538,312.824219 
	C368.834961,314.391724 351.692444,315.819977 335.235077,309.421265 
	C328.666290,306.867249 322.817474,303.620972 320.082214,296.648773 
	C319.445862,295.026764 318.148529,292.908600 320.313751,291.730377 
	C322.950195,290.295746 323.214630,293.042908 323.873383,294.540375 
	C326.994354,301.635254 333.060699,304.848785 340.016785,306.746399 
	C355.741547,311.036072 371.734619,310.268372 387.637146,308.422119 
	C406.491241,306.233185 425.092560,302.443237 443.468018,297.673462 
	C457.000580,294.160797 470.346924,289.998291 483.601044,285.540344 
	C486.430359,284.588715 488.462433,282.868378 490.181213,280.483673 
	C509.394287,253.826538 529.871704,228.202499 552.956055,204.764618 
	C565.252808,192.279572 578.006897,180.282867 594.061279,172.583817 
	C600.395020,169.546402 606.964172,167.167053 614.111511,166.918701 
	C628.535645,166.417542 635.230103,174.945663 631.640442,189.074173 
	C628.606445,201.015335 621.048584,210.043213 612.896729,218.711349 
	C594.321716,238.462921 571.287781,251.833099 547.472961,263.968628 
	C533.084351,271.300720 518.493347,278.271851 503.202118,283.606781 
	C499.542542,284.883575 497.114777,287.453247 494.960358,290.536621 
	C475.680847,318.128418 455.465576,345.018921 434.120880,371.047882 
	C428.420471,377.999268 422.360107,384.655151 416.480438,391.460083 
	C415.090729,393.068512 413.309082,394.412506 412.681549,396.971161 
	C416.970490,399.579803 421.906250,400.441711 426.608154,401.838287 
	C446.693604,407.804077 466.478882,415.061066 487.500610,417.221161 
	C499.329010,418.436523 511.145142,418.648132 522.061401,412.555634 
	C527.617737,409.454559 532.493164,405.881927 533.042480,398.788330 
	C533.089233,398.184509 533.571594,397.585449 533.945312,397.049561 
	C534.104492,396.821320 534.504944,396.761444 535.068359,396.497192 
	C538.108643,398.345581 537.461426,401.119904 536.616455,403.827087 
	C534.393921,410.947327 528.861816,414.858948 522.545349,417.851898 
	C511.084320,423.282440 498.876709,423.217468 486.751831,421.699921 
	C464.167755,418.873260 442.723694,411.356781 421.098633,404.695709 
	C408.081787,400.686188 408.118896,400.529175 398.519073,410.160675 
	C376.766571,431.984955 352.948853,451.153473 325.818970,465.924622 
	C306.643402,476.364990 286.443481,484.095520 264.430115,485.548767 
	C250.712891,486.454346 236.999298,485.452820 224.500351,478.977264 
	C213.517303,473.287048 207.159836,464.181671 206.791901,450.981018 
M390.470306,396.002930 
	C364.469452,388.702454 337.993378,385.054749 310.980225,386.318451 
	C290.899780,387.257843 271.198669,390.214722 253.065857,399.747040 
	C236.989426,408.198273 222.897202,418.805328 214.761902,435.670959 
	C207.208572,451.330048 211.797195,467.314453 225.782303,474.334961 
	C235.372391,479.149231 245.732468,481.092712 256.304047,480.619751 
	C275.011749,479.782806 292.714661,474.703583 309.419769,466.229889 
	C341.918274,449.745148 369.317078,426.599060 394.705750,400.839264 
	C395.482910,400.050781 396.528748,399.264496 395.803070,397.608643 
	C394.382538,397.171387 392.806122,396.686096 390.470306,396.002930 
M613.048401,211.555679 
	C614.840576,209.366089 616.876770,207.330994 618.379578,204.958145 
	C622.998108,197.665390 628.094910,190.500504 627.739929,181.239700 
	C627.521362,175.539154 625.411377,173.101486 619.940063,171.993347 
	C613.620300,170.713364 607.664490,172.260651 601.967041,174.694168 
	C592.201172,178.865402 583.851379,185.206253 576.264832,192.545776 
	C551.048401,216.941132 529.466614,244.420609 508.657654,272.542725 
	C507.667450,273.880890 505.974335,275.062805 506.368805,277.574524 
	C508.207245,276.896210 509.902802,276.325012 511.556824,275.651825 
	C525.290283,270.062012 538.729675,263.824219 551.781982,256.798828 
	C574.142212,244.763519 595.767334,231.686752 613.048401,211.555679 
z"/>
<path fill="#7C6758" opacity="1.000000" stroke="none" 
	d="
M816.880981,242.862793 
	C782.457397,280.229095 742.122681,309.601807 699.111206,335.370850 
	C688.885498,341.497284 682.035156,349.968353 675.447998,359.120117 
	C668.154358,369.253479 660.753845,379.408722 657.090088,391.578888 
	C654.894287,398.873077 657.407959,401.912048 665.090515,401.816345 
	C677.257019,401.664764 687.599731,396.056763 697.678833,390.242249 
	C713.448730,381.144836 728.306641,370.721680 740.823547,357.298340 
	C741.731445,356.324615 742.712219,355.415009 743.698608,354.518951 
	C752.486633,346.535675 758.579285,346.124451 768.091064,353.024780 
	C769.170105,352.130798 770.247070,351.117767 771.443848,350.274750 
	C773.341675,348.937988 775.429626,348.242645 777.357849,350.086090 
	C779.130920,351.781067 778.444519,353.627991 777.401062,355.536774 
	C774.845581,360.211182 772.450012,364.972748 769.951172,369.678558 
	C767.652710,374.007141 766.310669,378.571808 765.974792,383.487061 
	C765.582825,389.223602 767.877502,391.462738 773.629761,390.484314 
	C779.643799,389.461334 784.988831,386.727386 790.178406,383.680756 
	C801.891357,376.804382 812.434326,368.446533 821.777222,358.580414 
	C822.578003,357.734711 823.395386,356.894348 824.284180,356.145477 
	C825.105469,355.453522 826.112976,355.221069 827.024780,355.940552 
	C828.173767,356.847290 827.946594,357.975098 827.246460,359.052185 
	C826.885071,359.608154 826.488525,360.161011 826.017639,360.623352 
	C813.140564,373.267517 800.009460,385.568146 782.763062,392.234589 
	C782.296997,392.414703 781.833923,392.602600 781.368713,392.784882 
	C775.145325,395.223053 768.625793,397.208954 762.877502,392.450409 
	C757.002441,387.587067 758.385376,380.797424 759.738953,374.322266 
	C760.070862,372.734253 760.384399,371.142426 760.696594,369.600922 
	C758.776123,368.691040 757.985352,370.066895 757.021606,370.817993 
	C753.334167,373.691772 749.581787,376.453857 745.280884,378.367828 
	C737.366699,381.889679 734.414062,380.549316 732.037048,371.849213 
	C728.876465,374.234802 725.894043,376.519165 722.877319,378.757233 
	C708.653076,389.309753 694.099670,399.243896 676.882446,404.492676 
	C672.837769,405.725677 668.805908,406.422150 664.610229,406.406097 
	C652.574524,406.359955 646.966553,398.746948 650.470947,387.155853 
	C652.201233,381.432678 654.542114,375.945190 657.579102,369.990814 
	C649.736877,375.007568 642.601990,379.759460 635.278625,384.200378 
	C628.816833,388.118835 621.819336,390.822235 614.248169,391.687805 
	C605.260559,392.715332 601.008545,387.880585 603.170410,379.066589 
	C603.910950,376.047577 605.060547,373.128937 606.408142,368.979309 
	C597.330200,375.107025 588.892395,379.984955 580.094971,384.223846 
	C571.647949,388.293915 562.985474,391.601044 553.579712,392.698395 
	C550.171631,393.096008 546.946777,392.566895 543.744934,391.576202 
	C538.914490,390.081604 537.079529,386.616577 536.900879,381.735870 
	C536.722717,376.869507 540.106628,372.947693 539.976990,367.891846 
	C539.927307,365.954926 544.391174,364.017090 546.394836,361.491425 
	C552.260803,354.097260 559.268188,347.967255 568.161133,344.386414 
	C574.539978,341.817871 579.936462,342.654449 581.760071,346.260315 
	C583.588379,349.875427 581.560486,353.880005 575.980835,358.273163 
	C570.593994,362.514465 564.326782,364.615173 557.812866,366.198517 
	C551.965942,367.619781 544.873535,377.290344 545.607361,383.076508 
	C546.046753,386.541382 548.535034,387.594513 551.684570,387.757843 
	C558.196472,388.095612 564.264343,386.102600 570.095581,383.722504 
	C584.022827,378.037842 597.173096,370.913544 609.118652,361.634644 
	C612.758423,358.807343 615.089844,354.938721 618.259460,351.774780 
	C620.140137,349.897522 622.011108,347.962524 624.137817,346.394257 
	C625.997253,345.023010 628.306030,344.795380 630.081482,346.620972 
	C631.985229,348.578430 630.462708,350.303864 629.224304,351.890198 
	C623.378784,359.378113 617.396912,366.780029 613.362183,375.474091 
	C612.246521,377.878204 611.158569,380.360168 610.562317,382.923737 
	C609.825378,386.092285 611.483887,387.738617 614.718323,387.372986 
	C618.892334,386.901123 622.831787,385.535522 626.620056,383.748077 
	C639.520752,377.661102 651.213684,369.720428 661.939026,360.370209 
	C667.404114,355.605835 670.680725,349.060669 674.995544,343.361267 
	C708.462708,299.155273 744.550720,257.339081 786.460815,220.822830 
	C795.784119,212.699524 805.676880,205.357208 817.024780,200.224792 
	C820.518066,198.644836 824.120972,197.276093 827.973083,196.863678 
	C835.334473,196.075546 839.430908,200.465256 837.892456,207.767136 
	C836.034302,216.586411 831.432129,224.157837 826.244934,231.348007 
	C823.423645,235.258545 820.178101,238.862961 816.880981,242.862793 
M730.317993,290.805542 
	C718.942932,304.449005 707.567871,318.092468 696.192810,331.735931 
	C697.911621,331.640717 699.205139,331.021881 700.399780,330.250000 
	C727.822021,312.531342 754.740234,294.111542 779.529175,272.773163 
	C796.334229,258.307434 812.696472,243.403458 825.354492,224.952530 
	C828.581360,220.248917 831.111023,215.214371 832.791260,209.766571 
	C833.568909,207.244980 834.904358,204.346176 832.646240,202.260925 
	C830.536560,200.312729 827.817749,202.066849 825.567688,202.807327 
	C817.034424,205.615616 809.881958,210.794403 803.202026,216.628250 
	C777.197815,239.338791 753.303101,264.131104 730.317993,290.805542 
M748.925293,371.452728 
	C753.364990,368.274902 757.924805,365.252869 761.868103,361.432800 
	C763.523132,359.829468 765.686951,358.413696 763.554749,355.675110 
	C761.645203,353.222534 759.490295,353.389771 756.977966,354.714539 
	C749.388000,358.716766 744.017151,364.866394 739.795532,372.161102 
	C739.254761,373.095459 739.168762,374.037079 740.291138,374.951538 
	C743.319763,375.066376 745.713684,373.188354 748.925293,371.452728 
M571.542480,356.118225 
	C573.954895,354.111694 577.300354,352.837677 577.459778,348.900909 
	C571.674622,348.353333 561.769958,355.125366 558.173523,361.991821 
	C562.722046,360.667908 566.849731,358.649109 571.542480,356.118225 
z"/>
<path fill="#7C6758" opacity="1.000000" stroke="none" 
	d="
M647.599609,324.485535 
	C647.826660,329.585205 644.469421,331.736389 640.885254,333.581879 
	C639.213623,334.442596 637.361206,334.128540 636.944885,332.045258 
	C636.203064,328.333099 638.384583,325.727356 641.037659,323.587036 
	C643.240112,321.810333 645.530396,321.486145 647.599609,324.485535 
z"/>
</svg>